<svg width="512" height="512" viewBox="0 0 512 512" fill="none" xmlns="http://www.w3.org/2000/svg">
<rect x="0.5" y="0.5" width="511" height="511" stroke="black"/>
<path d="M230.404 84.561C227.345 85.0249 222.152 86.0454 218.814 86.7875C215.476 87.5297 212.045 88.179 211.118 88.179C210.098 88.179 208.058 88.7357 206.482 89.385C202.217 91.2404 197.394 92.9103 194.242 93.6524C192.665 94.0235 190.626 94.8584 189.606 95.415C188.586 95.9717 185.897 97.2704 183.579 98.3837C179.035 100.517 177.83 101.167 171.71 105.063C169.485 106.547 167.537 107.661 167.259 107.661C166.889 107.661 160.583 112.206 152.516 118.329C144.171 124.73 119.692 152.654 116.539 159.611C116.168 160.354 115.056 162.209 114.128 163.786C107.823 173.805 99.756 192.266 96.1398 205.068C90.1127 226.498 89 234.29 89 255.535C89 273.81 90.02 282.809 93.2653 294.683C94.0071 297.281 94.5635 300.157 94.5635 301.177C94.5635 302.105 95.6761 305.815 96.9743 309.433C98.2725 312.959 99.6633 316.948 100.127 318.247C102.445 325.297 111.347 343.387 116.632 351.829C133.415 378.454 155.947 398.956 182.651 412.036C199.063 420.015 207.872 423.261 217.423 424.931C220.02 425.395 224.192 426.23 226.696 426.879C229.57 427.529 239.12 427.993 252.194 427.993C272.872 428.086 279.549 427.343 292.529 423.818C294.57 423.261 297.722 422.52 299.484 422.056C304.955 420.85 310.611 418.623 322.201 412.779C334.441 406.749 335.461 406.099 340.375 402.388C342.23 400.997 344.085 399.883 344.455 399.883C345.66 399.883 355.953 391.442 364.206 383.649C380.247 368.62 395.175 346.727 404.726 324.277C405.375 322.7 406.58 319.917 407.415 317.968C408.249 316.02 408.899 313.794 408.899 312.866C408.899 312.031 409.548 310.454 410.29 309.527C411.124 308.506 411.681 305.723 411.681 303.126C411.681 297.652 412.237 298.394 380.618 261.101C377.558 257.483 373.385 252.474 371.345 250.061C369.305 247.557 366.987 244.959 366.153 244.124C365.411 243.289 363.371 240.785 361.609 238.465C359.847 236.146 357.529 233.363 356.417 232.157C355.304 231.044 353.727 228.168 352.8 225.849C351.41 222.045 351.317 221.117 352.43 217.685C353.449 214.438 356.602 208.315 359.755 203.213C360.219 202.471 361.516 199.966 362.722 197.647C364.484 193.936 371.252 181.969 373.663 178.165C374.127 177.423 375.611 174.64 376.909 172.135C378.207 169.538 380.061 166.198 380.988 164.713C381.823 163.137 384.42 158.591 386.645 154.509C388.87 150.427 391.374 145.789 392.301 144.304C393.228 142.727 395.083 139.388 396.381 136.883C397.772 134.285 400.275 129.74 401.944 126.678C403.706 123.617 405.561 120.277 406.117 119.257C406.673 118.236 408.527 114.897 410.29 111.835C411.959 108.774 414.555 104.135 415.853 101.631C417.151 99.033 419.284 95.2295 420.489 93.0958C423.086 88.3646 422.251 87.3441 418.635 90.7766C415.297 93.8379 409.733 98.662 403.799 103.486C401.388 105.527 398.699 107.846 397.864 108.681C397.03 109.423 394.526 111.557 392.208 113.227C389.89 114.989 385.347 118.7 382.009 121.39C378.671 124.081 374.312 127.699 372.365 129.276C370.325 130.946 368.1 132.894 367.265 133.729C366.431 134.471 363.093 137.161 359.755 139.666C356.417 142.171 353.542 144.49 353.264 144.768C352.986 145.047 350.483 147.088 347.701 149.407C344.919 151.726 341.117 154.973 339.262 156.643C337.408 158.312 333.699 161.281 330.917 163.322C328.229 165.363 325.818 167.404 325.54 167.775C325.169 168.239 320.811 172.043 315.711 176.31C307.644 183.082 301.802 188.185 298.186 191.709C297.63 192.266 292.993 196.348 287.894 200.893C273.336 213.789 268.885 218.52 268.885 221.025C268.885 222.973 272.13 228.539 274.17 230.023C274.634 230.302 279.455 235.775 285.112 242.176C290.675 248.577 297.537 256.184 300.411 259.245C303.193 262.214 305.975 265.09 306.531 265.739C307.736 267.038 323.222 284.479 325.91 287.54C326.93 288.654 328.692 290.694 329.898 291.993C332.864 295.24 336.574 303.867 336.574 307.579C336.574 318.896 315.061 341.068 294.848 350.716C292.529 351.829 289.933 353.128 288.913 353.684C286.688 354.891 278.807 357.024 268.885 359.065C253.122 362.312 232.166 359.715 216.218 352.479C213.065 350.995 210.284 349.788 210.098 349.788C209.82 349.788 207.038 348.026 203.792 345.892C166.889 321.494 149.642 283.087 155.576 238.465C156.781 229.467 160.027 217.499 162.345 213.417C162.809 212.676 163.457 211.377 163.736 210.634C165.498 205.996 170.041 198.204 174.956 191.524C183.486 180.02 197.209 168.053 209.542 161.56C213.992 159.241 215.476 158.591 218.999 157.292C231.61 152.654 243.293 150.427 254.42 150.334C263.507 150.242 276.395 152.097 280.012 154.045C280.939 154.509 282.423 154.973 283.257 154.973C284.092 154.973 287.244 156.179 290.397 157.756C297.073 161.095 301.709 161.281 305.14 158.406C306.531 157.292 313.671 151.262 321.089 144.954C328.599 138.738 335.461 132.894 336.296 131.966C337.223 131.038 339.819 128.812 342.137 126.957C344.455 125.101 347.979 122.133 350.019 120.184L353.727 116.845L350.483 114.062C348.72 112.485 346.402 110.815 345.382 110.351C344.363 109.887 342.322 108.681 340.747 107.661C339.262 106.64 337.315 105.62 336.574 105.249C335.832 104.97 334.534 104.321 333.792 103.857C333.05 103.393 331.752 102.744 331.01 102.465C330.268 102.187 326.93 100.61 323.592 99.1259C312.095 93.9308 307.366 92.0753 302.173 91.0549C300.411 90.6838 298.371 90.0344 297.722 89.6633C296.146 88.6429 285.761 86.4164 277.694 85.2104C268.978 84.0044 237.359 83.5406 230.404 84.561Z" fill="white"/>
</svg>
